<?xml version="1.0" standalone="no"?><!DOCTYPE svg PUBLIC "-//W3C//DTD SVG 1.1//EN" "http://www.w3.org/Graphics/SVG/1.1/DTD/svg11.dtd"><svg height="500" node-id="1" sillyvg="true" template-height="1024" template-width="1024" version="1.1" viewBox="0 0 1024 1024" width="500" xmlns="http://www.w3.org/2000/svg" xmlns:xlink="http://www.w3.org/1999/xlink"><defs node-id="66"><linearGradient gradientUnits="objectBoundingBox" id="linearGradient-3" node-id="6" spreadMethod="pad" x1="1.1591349" x2="0.5" y1="-0.337185" y2="0.6488408"><stop offset="0" stop-color="#6cadff"></stop><stop offset="1" stop-color="#ffffff" stop-opacity="0"></stop></linearGradient><linearGradient gradientUnits="objectBoundingBox" id="linearGradient-4" node-id="9" spreadMethod="pad" x1="0.10503183" x2="0.70498055" y1="-0.20569195" y2="1"><stop offset="0" stop-color="#6cadff"></stop><stop offset="1" stop-color="#ffffff" stop-opacity="0"></stop></linearGradient><linearGradient gradientUnits="objectBoundingBox" id="linearGradient-5" node-id="12" spreadMethod="pad" x1="1.0019176" x2="0.38801584" y1="-0.97780454" y2="1.0473608"><stop offset="0" stop-color="#6cadff"></stop><stop offset="1" stop-color="#ffffff"></stop></linearGradient><linearGradient gradientUnits="objectBoundingBox" id="linearGradient-6" node-id="15" spreadMethod="pad" x1="0.5" x2="0.5" y1="-0.27901396" y2="1"><stop offset="0" stop-color="#6cadff"></stop><stop offset="1" stop-color="#ffffff" stop-opacity="0"></stop></linearGradient><linearGradient gradientUnits="objectBoundingBox" id="linearGradient-7" node-id="18" spreadMethod="pad" x1="0.5" x2="0.5" y1="-0.27901396" y2="1"><stop offset="0" stop-color="#6cadff"></stop><stop offset="1" stop-color="#ffffff" stop-opacity="0"></stop></linearGradient><linearGradient gradientUnits="objectBoundingBox" id="linearGradient-8" node-id="21" spreadMethod="pad" x1="0.5" x2="0.5" y1="-2.211569" y2="1"><stop offset="0" stop-color="#d2d2d2"></stop><stop offset="1" stop-color="#d2d2d2" stop-opacity="0"></stop></linearGradient><mask height="660.89514" id="mask-2" maskUnits="userSpaceOnUse" node-id="26" width="1228.8" x="60.159904" y="896.9686"><path d="M 184.70 714.03 L 1164.42 714.03 C 1170.29 714.03 1175.92 716.37 1180.08 720.52 C 1184.23 724.67 1186.56 730.30 1186.56 736.17 L 1186.56 1715.89 C 1186.56 1721.76 1184.23 1727.40 1180.08 1731.55 C 1175.92 1735.70 1170.29 1738.03 1164.42 1738.03 L 184.70 1738.03 C 178.83 1738.03 173.20 1735.70 169.04 1731.55 C 164.89 1727.40 162.56 1721.76 162.56 1715.89 L 162.56 736.17 C 162.56 723.95 172.47 714.03 184.70 714.03 Z" fill="#ffffff" fill-rule="evenodd" node-id="107" stroke="none" target-height="1024" target-width="1024" target-x="162.5599" target-y="714.0324"></path></mask></defs><g node-id="109"><g node-id="111"><g node-id="112"><path d="M 364.78 543.83 L 641.48 543.83 L 641.48 609.09 L 364.78 609.09 Z" fill="#9cc5ff" fill-rule="nonzero" group-id="1,3,4" id="矩形" node-id="31" stroke="none" target-height="65.26135" target-width="276.7" target-x="364.77856" target-y="543.8335"></path><path d="M 421.21 576.46 L 420.74 579.83 L 419.53 582.68 L 417.59 585.19 L 415.11 587.12 L 412.23 588.31 L 408.89 588.78 L 405.54 588.31 L 402.67 587.12 L 400.18 585.19 L 398.25 582.68 L 397.06 579.83 L 396.56 576.46 L 397.06 573.12 L 398.25 570.28 L 400.18 567.77 L 402.67 565.84 L 405.54 564.65 L 408.89 564.18 L 412.23 564.65 L 415.11 565.84 L 417.59 567.77 L 419.53 570.28 L 420.74 573.12 Z" fill="#ffffff" fill-rule="nonzero" group-id="1,3,4" id="椭圆形" node-id="32" stroke="none" target-height="24.597229" target-width="24.65207" target-x="396.56094" target-y="564.1794"></path><path d="M 489.45 578.20 L 488.92 580.72 L 487.57 582.76 L 485.55 584.11 L 483.04 584.64 L 480.52 584.11 L 478.50 582.76 L 477.12 580.72 L 476.62 578.20 L 477.12 575.69 L 478.50 573.68 L 480.52 572.32 L 483.04 571.80 L 485.55 572.32 L 487.57 573.68 L 488.92 575.69 Z" fill="#ffffff" fill-rule="nonzero" group-id="1,3,4" id="椭圆形" node-id="33" stroke="none" target-height="12.836914" target-width="12.823486" target-x="476.62485" target-y="571.7987"></path><path d="M 511.61 578.20 L 511.12 580.72 L 509.73 582.76 L 507.72 584.11 L 505.20 584.64 L 502.69 584.11 L 500.67 582.76 L 499.31 580.72 L 498.79 578.20 L 499.31 575.69 L 500.67 573.68 L 502.69 572.32 L 505.20 571.80 L 507.72 572.32 L 509.73 573.68 L 511.12 575.69 Z" fill="#ffffff" fill-rule="nonzero" group-id="1,3,4" id="椭圆形" node-id="34" stroke="none" target-height="12.836914" target-width="12.823517" target-x="498.78958" target-y="571.7987"></path><path d="M 527.59 571.85 L 616.41 571.85 L 618.29 572.21 L 619.81 573.26 L 620.83 574.75 L 621.22 576.66 L 621.22 579.83 L 620.83 581.71 L 619.81 583.23 L 618.29 584.25 L 616.41 584.64 L 527.59 584.64 L 525.71 584.25 L 524.19 583.23 L 523.17 581.71 L 522.78 579.83 L 522.78 576.66 L 523.17 574.75 L 524.19 573.26 L 525.71 572.21 Z" fill="#ffffff" fill-rule="nonzero" group-id="1,3,4" id="矩形" node-id="35" stroke="none" target-height="12.781677" target-width="98.44238" target-x="522.7784" target-y="571.85394"></path><g node-id="113"><g node-id="114"><path d="M 755.01 736.11 L 751.92 727.44 L 749.82 717.64 L 748.96 707.51 L 749.43 697.35 L 750.56 690.67 L 752.41 684.43 L 754.93 678.55 L 758.27 673.17 L 762.42 668.53 L 767.45 664.53 L 769.49 666.10 L 770.90 668.14 L 771.62 670.52 L 771.59 673.09 L 770.85 678.00 L 769.63 689.32 L 769.35 701.82 L 770.10 707.26 L 771.45 710.38 L 772.81 711.46 L 774.63 711.40 L 777.42 709.80 L 781.60 705.33 L 788.64 694.90 L 801.52 672.15 L 814.43 649.54 L 821.56 638.72 L 829.57 628.34 L 836.32 621.46 L 842.79 616.44 L 849.03 612.93 L 855.72 610.50 L 861.72 609.48 L 867.19 609.70 L 872.41 611.14 L 876.75 613.65 L 880.34 617.29 L 882.89 621.77 L 884.38 627.34 L 884.71 634.35 L 883.72 641.34 L 881.09 649.62 L 876.50 659.50 L 871.44 667.48 L 862.96 681.20 L 858.57 689.04 L 854.78 696.72 L 851.91 704.28 L 850.77 710.11 L 851.02 713.61 L 852.32 715.93 L 854.67 717.45 L 857.79 717.73 L 860.86 717.06 L 867.63 714.55 L 874.48 711.40 L 881.34 708.39 L 887.94 706.27 L 892.37 705.61 L 896.70 705.91 L 901.07 707.24 L 904.53 709.39 L 907.26 712.07 L 909.42 715.38 L 911.55 721.01 L 912.57 727.36 L 912.60 733.88 L 911.77 740.17 L 909.09 749.42 L 904.66 758.75 L 898.78 767.42 L 891.43 775.17 L 885.84 779.62 L 879.76 783.26 L 873.13 786.13 L 866.17 788.01 L 858.76 788.76 L 850.77 788.37 L 838.11 786.11 L 823.80 782.41 L 809.48 777.55 L 795.42 771.48 L 786.32 766.70 L 778.14 761.54 L 770.76 755.99 L 764.10 749.69 L 758.94 743.15 L 755.09 736.36 Z" fill="url(#linearGradient-3)" fill-rule="nonzero" group-id="1,3,4,5,6" id="路径" node-id="38" stroke="none" target-height="179.27545" target-width="163.6377" target-x="748.95825" target-y="609.4813"></path><path d="M 202.47 678.47 L 194.34 674.11 L 186.22 668.23 L 178.78 661.30 L 172.32 653.46 L 167.15 644.85 L 163.78 635.85 L 162.62 629.63 L 162.56 623.42 L 163.61 617.13 L 166.15 616.91 L 168.56 617.43 L 170.69 618.65 L 172.40 620.55 L 175.16 624.66 L 181.85 633.89 L 190.06 643.33 L 194.26 646.86 L 197.35 648.27 L 199.07 648.16 L 200.39 646.89 L 201.39 643.85 L 201.50 637.72 L 199.70 625.27 L 193.90 599.87 L 188.26 574.48 L 186.33 561.61 L 185.36 548.50 L 185.80 538.89 L 187.21 530.83 L 189.51 524.07 L 192.85 517.80 L 196.64 513.02 L 200.84 509.52 L 205.67 507.09 L 210.57 506.07 L 215.68 506.34 L 220.54 507.95 L 225.38 511.09 L 230.33 516.06 L 234.25 521.91 L 237.87 529.81 L 241.08 540.22 L 242.68 549.52 L 245.58 565.39 L 247.60 574.15 L 249.98 582.37 L 252.90 589.88 L 255.97 594.99 L 258.51 597.39 L 261.03 598.25 L 263.77 597.78 L 266.31 595.90 L 268.13 593.33 L 271.48 586.93 L 274.43 580.03 L 277.47 573.21 L 280.93 567.24 L 283.78 563.79 L 287.20 561.17 L 291.35 559.27 L 295.35 558.52 L 299.20 558.69 L 303.01 559.71 L 308.37 562.44 L 313.40 566.47 L 317.80 571.30 L 321.42 576.52 L 325.23 583.59 L 329.35 592.83 L 332.94 602.77 L 336.01 613.65 L 338.16 624.78 L 339.10 635.65 L 338.94 642.88 L 337.97 649.51 L 336.26 655.64 L 333.60 661.33 L 329.96 666.18 L 325.20 670.33 L 319.59 673.64 L 312.90 676.70 L 305.00 679.44 L 292.62 682.58 L 278.86 684.85 L 264.73 686.17 L 250.56 686.56 L 236.60 685.98 L 223.91 684.52 L 212.00 681.98 L 202.72 678.72 Z" fill="url(#linearGradient-4)" fill-rule="nonzero" group-id="1,3,4,5,6" id="路径" node-id="39" stroke="none" target-height="180.49005" target-width="176.5441" target-x="162.5599" target-y="506.0681"></path><path d="M 811.06 522.52 L 807.27 527.93 L 804.15 533.95 L 801.91 540.36 L 800.78 546.93 L 800.92 553.58 L 802.57 560.18 L 804.78 564.07 L 807.55 566.94 L 810.51 569.59 L 813.13 572.52 L 814.84 576.05 L 815.40 581.60 L 814.21 587.70 L 812.14 593.47 L 809.18 598.96 L 802.99 608.79 L 795.97 617.96 L 788.17 626.54 L 792.65 631.10 L 795.72 636.54 L 797.30 642.58 L 797.27 648.96 L 795.77 655.20 L 793.32 661.08 L 789.97 666.49 L 785.77 671.35 L 782.68 674.25 L 778.94 676.26 L 775.02 676.70 L 771.10 676.26 L 758.52 673.53 L 746.33 669.64 L 734.50 664.58 L 729.12 661.74 L 724.17 658.26 L 720.11 654.04 L 717.42 648.93 L 716.60 644.73 L 716.82 641.78 L 717.81 639.71 L 720.44 637.06 L 723.97 634.91 L 725.25 634.19 L 728.87 631.90 L 731.74 628.83 L 733.81 624.14 L 735.08 618.95 L 736.69 608.57 L 737.71 597.09 L 738.46 590.79 L 740.00 585.13 L 741.77 581.88 L 744.34 579.36 L 747.85 577.57 L 755.09 576.27 L 762.31 574.95 L 766.95 572.76 L 770.74 569.84 L 773.80 566.14 L 777.53 559.71 L 780.74 552.53 L 781.46 550.76 L 785.19 542.67 L 787.35 538.92 L 789.83 535.58 L 792.87 532.87 L 796.85 530.47 L 805.17 526.44 L 808.85 524.40 L 811.06 522.52 Z M 781.57 579.75 L 777.76 584.53 L 768.72 597.33 L 763.50 605.87 L 758.02 616.02 L 753.19 626.82 L 749.26 638.36 L 747.36 646.28 L 746.28 654.20 L 746.03 662.13 L 757.88 662.13 L 758.88 654.12 L 762.47 633.94 L 765.49 621.32 L 769.71 607.25 L 774.99 593.25 L 781.57 579.75 Z" fill="url(#linearGradient-5)" fill-rule="nonzero" group-id="1,3,4,5,6" id="形状结合" node-id="40" stroke="none" target-height="154.18127" target-width="98.801636" target-x="716.5956" target-y="522.5215"></path><path d="M 287.81 298.77 L 287.81 298.77 L 287.12 292.31 L 284.99 286.43 L 281.62 281.24 L 277.11 276.94 L 271.73 273.79 L 265.51 271.91 L 259.01 271.55 L 252.88 272.71 L 247.18 275.22 L 242.24 278.98 L 238.26 283.78 L 235.44 289.63 L 229.39 290.35 L 223.91 292.56 L 219.19 296.12 L 215.48 300.93 L 213.22 306.56 L 212.53 312.41 L 213.41 318.26 L 215.87 323.81 L 219.71 328.50 L 224.55 331.90 L 230.10 333.94 L 236.13 334.47 L 285.57 334.47 L 290.19 333.78 L 294.19 332.15 L 297.73 329.53 L 300.52 326.13 L 302.35 322.21 L 303.26 317.66 L 302.93 312.99 L 301.57 308.88 L 299.22 305.18 L 296.07 302.14 L 292.29 300.01 Z" fill="url(#linearGradient-6)" fill-rule="nonzero" group-id="1,3,4,5,6" id="路径" node-id="41" stroke="none" target-height="62.914764" target-width="90.731735" target-x="212.5273" target-y="271.5525"></path><path d="M 492.13 271.72 L 492.13 271.55 L 491.69 266.14 L 490.47 261.09 L 488.48 256.34 L 484.23 249.94 L 478.61 244.66 L 474.28 241.90 L 469.49 239.86 L 464.22 238.51 L 458.83 238.01 L 453.63 238.37 L 448.60 239.50 L 441.55 242.62 L 435.42 247.23 L 431.94 251.04 L 429.12 255.38 L 426.88 260.32 L 421.77 260.90 L 417.07 262.25 L 412.76 264.37 L 408.86 267.22 L 405.57 270.61 L 402.86 274.59 L 400.84 278.98 L 399.66 283.67 L 399.24 288.81 L 399.79 293.91 L 401.15 298.58 L 403.30 302.89 L 406.15 306.78 L 409.55 310.06 L 413.53 312.80 L 417.92 314.78 L 422.62 316.00 L 427.76 316.39 L 489.17 316.39 L 494.92 315.67 L 500.06 313.60 L 504.51 310.34 L 508.05 306.12 L 510.45 301.12 L 511.56 295.43 L 511.17 289.66 L 509.40 284.39 L 506.45 279.78 L 502.44 276.00 L 497.60 273.29 L 491.96 271.86 Z" fill="url(#linearGradient-7)" fill-rule="nonzero" group-id="1,3,4,5,6" id="路径" node-id="42" stroke="none" target-height="78.37433" target-width="112.3161" target-x="399.24176" target-y="238.0108"></path></g><path d="M 1024.00 788.37 L 999.60 772.41 L 973.84 757.18 L 946.67 742.63 L 918.04 728.80 L 889.16 716.24 L 859.12 704.50 L 827.83 693.68 L 795.31 683.71 L 762.69 675.02 L 729.11 667.37 L 694.54 660.75 L 658.92 655.20 L 623.35 650.89 L 587.03 647.77 L 549.95 645.89 L 512.00 645.20 L 474.05 645.89 L 436.97 647.77 L 400.62 650.89 L 365.08 655.20 L 329.46 660.75 L 294.89 667.37 L 261.31 675.02 L 228.69 683.71 L 196.17 693.68 L 164.88 704.50 L 134.84 716.24 L 105.93 728.80 L 77.33 742.63 L 50.16 757.18 L 24.40 772.41 L 0.00 788.37 Z" fill="url(#linearGradient-8)" fill-rule="nonzero" group-id="1,3,4,5" id="路径" node-id="43" stroke="none" target-height="143.16632" target-width="1024" target-x="0" target-y="645.2039"></path></g><path d="M 377.85 533.29 L 624.04 533.29 L 624.04 543.86 L 377.85 543.86 Z" fill="#64adff" fill-rule="nonzero" group-id="1,3,4" id="矩形" node-id="44" stroke="none" target-height="10.573181" target-width="246.18893" target-x="377.8508" target-y="533.28796"></path><path d="M 377.85 609.12 L 624.04 609.12 L 624.04 619.70 L 377.85 619.70 Z" fill="#64adff" fill-rule="nonzero" group-id="1,3,4" id="矩形" node-id="45" stroke="none" target-height="10.573242" target-width="246.18893" target-x="377.8508" target-y="609.12244"></path><path d="M 398.55 684.96 L 413.70 684.96 L 413.70 693.32 L 398.55 693.32 Z" fill="#64adff" fill-rule="nonzero" group-id="1,3,4" id="矩形" node-id="46" stroke="none" target-height="8.364746" target-width="15.1449585" target-x="398.55078" target-y="684.957"></path><path d="M 383.16 392.16 L 623.04 392.16 L 628.05 392.88 L 632.33 394.65 L 636.06 397.55 L 638.96 401.27 L 640.73 405.55 L 641.45 410.52 L 641.45 457.43 L 364.75 457.43 L 364.75 410.52 L 365.39 405.69 L 367.18 401.41 L 370.14 397.52 L 374.04 394.57 L 378.32 392.80 Z" fill="#9cc5ff" fill-rule="nonzero" group-id="1,3,4" id="路径" node-id="47" stroke="none" target-height="65.26132" target-width="276.7" target-x="364.75092" target-y="392.16446"></path><path d="M 421.21 424.82 L 420.74 428.16 L 419.53 431.01 L 417.59 433.52 L 415.11 435.45 L 412.23 436.64 L 408.89 437.11 L 405.54 436.64 L 402.67 435.45 L 400.18 433.52 L 398.25 431.01 L 397.06 428.16 L 396.56 424.82 L 397.06 421.48 L 398.25 418.61 L 400.18 416.13 L 402.67 414.17 L 405.54 412.98 L 408.89 412.51 L 412.23 412.98 L 415.11 414.17 L 417.59 416.13 L 419.53 418.61 L 420.74 421.48 Z" fill="#ffffff" fill-rule="nonzero" group-id="1,3,4" id="椭圆形" node-id="48" stroke="none" target-height="24.597229" target-width="24.65207" target-x="396.56094" target-y="412.5103"></path><path d="M 489.45 426.56 L 488.92 429.07 L 487.57 431.09 L 485.55 432.44 L 483.04 432.97 L 480.52 432.44 L 478.50 431.09 L 477.12 429.07 L 476.62 426.56 L 477.12 424.05 L 478.50 422.03 L 480.52 420.65 L 483.04 420.16 L 485.55 420.65 L 487.57 422.03 L 488.92 424.05 Z" fill="#ffffff" fill-rule="nonzero" group-id="1,3,4" id="椭圆形" node-id="49" stroke="none" target-height="12.809326" target-width="12.823486" target-x="476.62485" target-y="420.15726"></path><path d="M 511.61 426.56 L 511.12 429.07 L 509.73 431.09 L 507.72 432.44 L 505.20 432.97 L 502.69 432.44 L 500.67 431.09 L 499.31 429.07 L 498.79 426.56 L 499.31 424.05 L 500.67 422.03 L 502.69 420.65 L 505.20 420.16 L 507.72 420.65 L 509.73 422.03 L 511.12 424.05 Z" fill="#ffffff" fill-rule="nonzero" group-id="1,3,4" id="椭圆形" node-id="50" stroke="none" target-height="12.809326" target-width="12.823517" target-x="498.78958" target-y="420.15726"></path><path d="M 527.59 420.16 L 616.41 420.16 L 618.29 420.52 L 619.81 421.54 L 620.83 423.06 L 621.22 424.96 L 621.22 428.11 L 620.83 430.01 L 619.81 431.53 L 618.29 432.55 L 616.41 432.91 L 527.59 432.91 L 525.71 432.55 L 524.19 431.53 L 523.17 430.01 L 522.78 428.11 L 522.78 424.96 L 523.17 423.06 L 524.19 421.54 L 525.71 420.52 Z" fill="#ffffff" fill-rule="nonzero" group-id="1,3,4" id="矩形" node-id="51" stroke="none" target-height="12.75412" target-width="98.44238" target-x="522.7784" target-y="420.15726"></path><path d="M 364.78 619.72 L 641.45 619.72 L 641.45 666.63 L 640.73 671.62 L 638.96 675.90 L 636.06 679.60 L 632.33 682.50 L 628.05 684.29 L 623.04 684.98 L 383.16 684.98 L 378.18 684.29 L 373.90 682.50 L 370.17 679.60 L 367.27 675.90 L 365.47 671.62 L 364.78 666.63 Z" fill="#9cc5ff" fill-rule="nonzero" group-id="1,3,4" id="路径" node-id="52" stroke="none" target-height="65.26135" target-width="276.67236" target-x="364.77856" target-y="619.72327"></path><path d="M 421.21 652.35 L 420.74 655.69 L 419.53 658.54 L 417.59 661.05 L 415.11 662.98 L 412.23 664.17 L 408.89 664.64 L 405.54 664.17 L 402.67 662.98 L 400.18 661.05 L 398.25 658.54 L 397.06 655.69 L 396.56 652.35 L 397.06 649.01 L 398.25 646.14 L 400.18 643.66 L 402.67 641.70 L 405.54 640.51 L 408.89 640.04 L 412.23 640.51 L 415.11 641.70 L 417.59 643.66 L 419.53 646.14 L 420.74 649.01 Z" fill="#ffffff" fill-rule="nonzero" group-id="1,3,4" id="椭圆形" node-id="53" stroke="none" target-height="24.59729" target-width="24.65207" target-x="396.56094" target-y="640.0415"></path><path d="M 489.45 650.56 L 488.92 653.07 L 487.57 655.11 L 485.55 656.47 L 483.04 656.99 L 480.52 656.47 L 478.50 655.11 L 477.12 653.07 L 476.62 650.56 L 477.12 648.05 L 478.50 646.03 L 480.52 644.68 L 483.04 644.15 L 485.55 644.68 L 487.57 646.03 L 488.92 648.05 Z" fill="#ffffff" fill-rule="nonzero" group-id="1,3,4" id="椭圆形" node-id="54" stroke="none" target-height="12.836914" target-width="12.823486" target-x="476.62485" target-y="644.1549"></path><path d="M 511.61 650.56 L 511.12 653.07 L 509.73 655.11 L 507.72 656.47 L 505.20 656.99 L 502.69 656.47 L 500.67 655.11 L 499.31 653.07 L 498.79 650.56 L 499.31 648.05 L 500.67 646.03 L 502.69 644.68 L 505.20 644.15 L 507.72 644.68 L 509.73 646.03 L 511.12 648.05 Z" fill="#ffffff" fill-rule="nonzero" group-id="1,3,4" id="椭圆形" node-id="55" stroke="none" target-height="12.836914" target-width="12.823517" target-x="498.78958" target-y="644.1549"></path><path d="M 527.59 644.21 L 616.41 644.21 L 618.29 644.57 L 619.81 645.62 L 620.83 647.11 L 621.22 649.01 L 621.22 652.19 L 620.83 654.07 L 619.81 655.58 L 618.29 656.61 L 616.41 656.99 L 527.59 656.99 L 525.71 656.61 L 524.19 655.58 L 523.17 654.07 L 522.78 652.19 L 522.78 649.01 L 523.17 647.11 L 524.19 645.62 L 525.71 644.57 Z" fill="#ffffff" fill-rule="nonzero" group-id="1,3,4" id="矩形" node-id="56" stroke="none" target-height="12.781738" target-width="98.44238" target-x="522.7784" target-y="644.2101"></path><path d="M 364.78 468.00 L 641.48 468.00 L 641.48 533.26 L 364.78 533.26 Z" fill="#9cc5ff" fill-rule="nonzero" group-id="1,3,4" id="矩形" node-id="57" stroke="none" target-height="65.26132" target-width="276.7" target-x="364.77856" target-y="467.999"></path><path d="M 421.21 500.66 L 420.74 504.00 L 419.53 506.84 L 417.59 509.35 L 415.11 511.29 L 412.23 512.47 L 408.89 512.94 L 405.54 512.47 L 402.67 511.29 L 400.18 509.35 L 398.25 506.84 L 397.06 504.00 L 396.56 500.66 L 397.06 497.32 L 398.25 494.45 L 400.18 491.93 L 402.67 490.00 L 405.54 488.81 L 408.89 488.34 L 412.23 488.81 L 415.11 490.00 L 417.59 491.93 L 419.53 494.45 L 420.74 497.32 Z" fill="#ffffff" fill-rule="nonzero" group-id="1,3,4" id="椭圆形" node-id="58" stroke="none" target-height="24.597229" target-width="24.65207" target-x="396.56094" target-y="488.34485"></path><path d="M 489.45 502.40 L 488.92 504.91 L 487.57 506.92 L 485.55 508.28 L 483.04 508.80 L 480.52 508.28 L 478.50 506.92 L 477.12 504.91 L 476.62 502.40 L 477.12 499.88 L 478.50 497.84 L 480.52 496.49 L 483.04 495.96 L 485.55 496.49 L 487.57 497.84 L 488.92 499.88 Z" fill="#ffffff" fill-rule="nonzero" group-id="1,3,4" id="椭圆形" node-id="59" stroke="none" target-height="12.836914" target-width="12.823486" target-x="476.62485" target-y="495.9642"></path><path d="M 511.61 502.40 L 511.12 504.91 L 509.73 506.92 L 507.72 508.28 L 505.20 508.80 L 502.69 508.28 L 500.67 506.92 L 499.31 504.91 L 498.79 502.40 L 499.31 499.88 L 500.67 497.84 L 502.69 496.49 L 505.20 495.96 L 507.72 496.49 L 509.73 497.84 L 511.12 499.88 Z" fill="#ffffff" fill-rule="nonzero" group-id="1,3,4" id="椭圆形" node-id="60" stroke="none" target-height="12.836914" target-width="12.823517" target-x="498.78958" target-y="495.9642"></path><path d="M 527.59 495.96 L 616.41 495.96 L 618.29 496.35 L 619.81 497.37 L 620.83 498.89 L 621.22 500.77 L 621.22 503.94 L 620.83 505.85 L 619.81 507.34 L 618.29 508.39 L 616.41 508.75 L 527.59 508.75 L 525.71 508.39 L 524.19 507.34 L 523.17 505.85 L 522.78 503.94 L 522.78 500.77 L 523.17 498.89 L 524.19 497.37 L 525.71 496.35 Z" fill="#ffffff" fill-rule="nonzero" group-id="1,3,4" id="矩形" node-id="61" stroke="none" target-height="12.781708" target-width="98.44238" target-x="522.7784" target-y="495.9642"></path><path d="M 377.85 457.43 L 624.04 457.43 L 624.04 468.00 L 377.85 468.00 Z" fill="#64adff" fill-rule="nonzero" group-id="1,3,4" id="矩形" node-id="62" stroke="none" target-height="10.573212" target-width="246.18893" target-x="377.8508" target-y="457.42578"></path><path d="M 711.76 546.59 L 707.64 544.22 L 703.00 543.42 L 702.06 543.42 L 700.54 543.42 L 696.64 543.42 L 683.85 542.78 L 671.16 540.80 L 664.80 538.67 L 658.28 535.33 L 646.81 527.60 L 639.49 522.25 L 636.09 520.84 L 632.44 520.34 L 628.77 520.84 L 625.37 522.25 L 620.47 526.50 L 615.64 530.25 L 609.12 534.61 L 602.01 538.31 L 594.61 540.80 L 581.84 542.78 L 568.93 543.42 L 563.38 543.42 L 562.60 543.42 L 557.93 544.19 L 553.87 546.59 L 551.66 549.00 L 550.30 551.73 L 549.78 554.96 L 549.78 583.97 L 550.55 601.72 L 552.52 616.96 L 555.50 630.02 L 559.76 642.77 L 564.59 653.62 L 569.90 662.79 L 576.17 671.40 L 582.45 678.58 L 588.78 684.46 L 598.89 692.05 L 607.93 697.30 L 616.72 701.27 L 623.10 703.48 L 630.18 705.22 L 632.39 705.22 L 634.65 705.22 L 641.81 703.48 L 648.25 701.27 L 657.12 697.32 L 666.21 692.11 L 676.38 684.52 L 682.74 678.61 L 689.07 671.43 L 695.34 662.82 L 700.70 653.65 L 705.54 642.80 L 709.82 630.05 L 712.84 616.99 L 714.80 601.72 L 715.60 583.97 L 715.60 554.96 L 715.08 551.78 L 713.83 549.02 Z" fill="#64adff" fill-rule="nonzero" group-id="1,3,4" id="路径" node-id="63" stroke="none" target-height="184.87946" target-width="165.82104" target-x="549.77954" target-y="520.3406"></path><path d="M 659.25 590.85 L 653.89 590.85 L 653.89 583.03 L 652.86 577.07 L 650.52 571.85 L 647.01 567.41 L 642.53 563.99 L 637.33 561.81 L 631.50 561.00 L 625.67 561.81 L 620.47 563.99 L 616.00 567.41 L 612.49 571.85 L 610.14 577.07 L 609.12 583.03 L 609.12 590.85 L 603.75 590.85 L 600.02 591.65 L 597.01 593.75 L 594.97 596.81 L 594.19 600.67 L 594.19 642.31 L 594.97 646.14 L 597.01 649.23 L 600.02 651.30 L 603.75 652.11 L 659.25 652.11 L 662.98 651.30 L 665.99 649.23 L 668.04 646.14 L 668.81 642.31 L 668.81 600.70 L 668.04 596.84 L 666.02 593.75 L 663.01 591.65 L 659.25 590.85 L 659.25 590.85 Z M 635.29 623.17 L 635.29 631.79 L 635.01 633.25 L 634.21 634.44 L 633.05 635.24 L 631.58 635.54 L 630.15 635.24 L 628.99 634.44 L 628.19 633.25 L 627.88 631.79 L 627.88 623.17 L 625.48 620.63 L 624.59 617.21 L 625.28 614.62 L 626.78 612.57 L 628.90 611.19 L 631.50 610.70 L 634.10 611.19 L 636.23 612.57 L 637.72 614.62 L 638.41 617.21 L 637.61 620.61 L 635.29 623.17 L 635.29 623.17 Z M 646.67 591.37 L 616.33 591.37 L 616.33 583.26 L 616.69 578.92 L 618.10 574.95 L 620.45 571.50 L 623.68 568.79 L 627.49 567.08 L 631.50 566.53 L 635.51 567.08 L 639.32 568.79 L 642.56 571.50 L 644.91 574.95 L 646.32 578.92 L 646.67 583.26 L 646.67 591.37 Z" fill="#ffffff" fill-rule="nonzero" group-id="1,3,4" id="形状" node-id="64" stroke="none" target-height="91.10083" target-width="74.619446" target-x="594.19196" target-y="561.00464"></path></g></g></g></svg>